<svg id="visual" viewBox="0 0 900 600" width="900" height="600" xmlns="http://www.w3.org/2000/svg" xmlns:xlink="http://www.w3.org/1999/xlink" version="1.1"><rect width="900" height="600" fill="#ffffff"></rect><g><g transform="translate(633 143)"><path d="M44.7 0.6C44.7 23.2 22.3 46.4 -0.9 46.4C-24.2 46.4 -48.3 23.2 -48.3 0.6C-48.3 -22 -24.2 -44 -0.9 -44C22.3 -44 44.7 -22 44.7 0.6Z" fill="none" stroke="#4f2323" stroke-width="20"></path></g><g transform="translate(85 224)"><path d="M25.2 0.3C25.2 13.8 12.6 27.5 -0.5 27.5C-13.7 27.5 -27.4 13.8 -27.4 0.3C-27.4 -13.2 -13.7 -26.3 -0.5 -26.3C12.6 -26.3 25.2 -13.2 25.2 0.3Z" stroke="#4f2323" fill="none" stroke-width="20"></path></g><g transform="translate(347 391)"><path d="M15.1 -0.1C15.1 7 7.6 14 0.3 14C-6.9 14 -13.8 7 -13.8 -0.1C-13.8 -7.2 -6.9 -14.4 0.3 -14.4C7.6 -14.4 15.1 -7.2 15.1 -0.1Z" stroke="#4f2323" fill="none" stroke-width="20"></path></g><g transform="translate(511 258)"><path d="M39.4 -0.1C39.4 19.9 19.7 39.7 -0.1 39.7C-20 39.7 -39.9 19.9 -39.9 -0.1C-39.9 -20.1 -20 -40.2 -0.1 -40.2C19.7 -40.2 39.4 -20.1 39.4 -0.1Z" stroke="#4f2323" fill="none" stroke-width="20"></path></g><g transform="translate(112 523)"><path d="M35 0.8C35 17.9 17.5 35.8 0.7 35.8C-16.1 35.8 -32.2 17.9 -32.2 0.8C-32.2 -16.3 -16.1 -32.7 0.7 -32.7C17.5 -32.7 35 -16.3 35 0.8Z" stroke="#4f2323" fill="none" stroke-width="20"></path></g><g transform="translate(460 80)"><path d="M34.9 -1C34.9 16.3 17.4 32.6 0 32.6C-17.5 32.6 -35 16.3 -35 -1C-35 -18.2 -17.5 -36.4 0 -36.4C17.4 -36.4 34.9 -18.2 34.9 -1Z" stroke="#4f2323" fill="none" stroke-width="20"></path></g><g transform="translate(772 199)"><path d="M30.6 0.5C30.6 15.4 15.3 30.8 0.3 30.8C-14.7 30.8 -29.4 15.4 -29.4 0.5C-29.4 -14.5 -14.7 -28.9 0.3 -28.9C15.3 -28.9 30.6 -14.5 30.6 0.5Z" stroke="#4f2323" fill="none" stroke-width="20"></path></g><g transform="translate(786 471)"><path d="M34.3 -0.6C34.3 17 17.2 34.1 -0.1 34.1C-17.3 34.1 -34.6 17 -34.6 -0.6C-34.6 -18.2 -17.3 -36.4 -0.1 -36.4C17.2 -36.4 34.3 -18.2 34.3 -0.6Z" stroke="#4f2323" fill="none" stroke-width="20"></path></g><g transform="translate(609 409)"><path d="M44.9 -0.4C44.9 22 22.5 44.1 1.1 44.1C-20.2 44.1 -40.3 22 -40.3 -0.4C-40.3 -22.8 -20.2 -45.7 1.1 -45.7C22.5 -45.7 44.9 -22.8 44.9 -0.4Z" stroke="#4f2323" fill="none" stroke-width="20"></path></g><g transform="translate(322 157)"><path d="M20.7 -0.2C20.7 10.9 10.3 21.9 -0.6 21.9C-11.6 21.9 -23.1 10.9 -23.1 -0.2C-23.1 -11.4 -11.6 -22.7 -0.6 -22.7C10.3 -22.7 20.7 -11.4 20.7 -0.2Z" stroke="#4f2323" fill="none" stroke-width="20"></path></g><g transform="translate(462 486)"><path d="M13.2 -0.1C13.2 6.7 6.6 13.4 0 13.4C-6.7 13.4 -13.4 6.7 -13.4 -0.1C-13.4 -6.8 -6.7 -13.7 0 -13.7C6.6 -13.7 13.2 -6.8 13.2 -0.1Z" stroke="#4f2323" fill="none" stroke-width="20"></path></g><g transform="translate(214 324)"><path d="M20.9 0.4C20.9 10.7 10.4 21.4 -0.1 21.4C-10.6 21.4 -21.2 10.7 -21.2 0.4C-21.2 -9.8 -10.6 -19.7 -0.1 -19.7C10.4 -19.7 20.9 -9.8 20.9 0.4Z" stroke="#4f2323" fill="none" stroke-width="20"></path></g></g></svg>